# xmcd
#
# Track frame offsets:
#	150
#	21900
#	42128
#	61148
#	80236
#	100598
#	123346
#	145021
#	162669
#	179214
#	195624
#
# Disc length: 2867 seconds
#
# Revision: 1
# Processed by: cddbd v1.5.2PL0 Copyright (c) Steve Scherf et al.
# Submitted via: audiograbber 1.83.01
#
DISCID=980b310b
DTITLE=Modou Touré and Ramon Goose - The West African Blues Project
DYEAR=2015
DGENRE=
TTITLE0=Believe
TTITLE1=Lolambe
TTITLE2=Dune Blues
TTITLE3=The Lighthouse Keeper (feat Diabel Cissokho)
TTITLE4=Kayre
TTITLE5=We Walk in the Sahara
TTITLE6=Satan
TTITLE7=Journey to Casamance
TTITLE8=Waar
TTITLE9=Casamance River Blues
TTITLE10=Western Comfort
EXTD=
EXTT0=
EXTT1=
EXTT2=
EXTT3=
EXTT4=
EXTT5=
EXTT6=
EXTT7=
EXTT8=
EXTT9=
EXTT10=
PLAYORDER=
